<mxfile host="app.diagrams.net" modified="2024-09-24T01:44:09.419Z" agent="Mozilla/5.0 (Windows NT 10.0; Win64; x64) AppleWebKit/537.36 (KHTML, like Gecko) Chrome/129.0.0.0 Safari/537.36 Edg/129.0.0.0" etag="E85PGQ2roZtISkQknl39" version="24.4.0" type="device">
  <diagram name="Page-1" id="G3lWdC4MZv0zw49rDUFw">
    <mxGraphModel dx="1061" dy="1089" grid="1" gridSize="10" guides="1" tooltips="1" connect="1" arrows="1" fold="1" page="1" pageScale="1" pageWidth="1169" pageHeight="827" math="0" shadow="0">
      <root>
        <mxCell id="0" />
        <mxCell id="1" parent="0" />
        <mxCell id="K3xu1hSzyyo2JFkCkbd0-3" style="edgeStyle=orthogonalEdgeStyle;rounded=0;orthogonalLoop=1;jettySize=auto;html=1;" edge="1" parent="1" source="K3xu1hSzyyo2JFkCkbd0-1" target="K3xu1hSzyyo2JFkCkbd0-2">
          <mxGeometry relative="1" as="geometry" />
        </mxCell>
        <mxCell id="K3xu1hSzyyo2JFkCkbd0-1" value="m1" style="ellipse;whiteSpace=wrap;html=1;aspect=fixed;strokeWidth=2;fillColor=#dae8fc;strokeColor=#6c8ebf;fontSize=24;" vertex="1" parent="1">
          <mxGeometry x="40" y="360" width="80" height="80" as="geometry" />
        </mxCell>
        <mxCell id="K3xu1hSzyyo2JFkCkbd0-5" style="edgeStyle=orthogonalEdgeStyle;rounded=0;orthogonalLoop=1;jettySize=auto;html=1;entryX=0;entryY=0.5;entryDx=0;entryDy=0;" edge="1" parent="1" source="K3xu1hSzyyo2JFkCkbd0-2" target="K3xu1hSzyyo2JFkCkbd0-4">
          <mxGeometry relative="1" as="geometry" />
        </mxCell>
        <mxCell id="K3xu1hSzyyo2JFkCkbd0-7" style="edgeStyle=orthogonalEdgeStyle;rounded=0;orthogonalLoop=1;jettySize=auto;html=1;exitX=1;exitY=0.5;exitDx=0;exitDy=0;entryX=0;entryY=0.5;entryDx=0;entryDy=0;curved=1;" edge="1" parent="1" source="K3xu1hSzyyo2JFkCkbd0-2" target="K3xu1hSzyyo2JFkCkbd0-6">
          <mxGeometry relative="1" as="geometry" />
        </mxCell>
        <mxCell id="K3xu1hSzyyo2JFkCkbd0-2" value="m2" style="ellipse;whiteSpace=wrap;html=1;aspect=fixed;strokeWidth=2;fillColor=#dae8fc;strokeColor=#6c8ebf;fontSize=24;" vertex="1" parent="1">
          <mxGeometry x="200" y="360" width="80" height="80" as="geometry" />
        </mxCell>
        <mxCell id="K3xu1hSzyyo2JFkCkbd0-9" style="edgeStyle=orthogonalEdgeStyle;rounded=0;orthogonalLoop=1;jettySize=auto;html=1;entryX=0;entryY=0.5;entryDx=0;entryDy=0;" edge="1" parent="1" source="K3xu1hSzyyo2JFkCkbd0-4" target="K3xu1hSzyyo2JFkCkbd0-8">
          <mxGeometry relative="1" as="geometry" />
        </mxCell>
        <mxCell id="K3xu1hSzyyo2JFkCkbd0-4" value="m3" style="ellipse;whiteSpace=wrap;html=1;aspect=fixed;strokeWidth=2;fillColor=#dae8fc;strokeColor=#6c8ebf;fontSize=24;" vertex="1" parent="1">
          <mxGeometry x="480" y="360" width="80" height="80" as="geometry" />
        </mxCell>
        <mxCell id="K3xu1hSzyyo2JFkCkbd0-11" style="edgeStyle=orthogonalEdgeStyle;rounded=0;orthogonalLoop=1;jettySize=auto;html=1;" edge="1" parent="1" source="K3xu1hSzyyo2JFkCkbd0-6" target="K3xu1hSzyyo2JFkCkbd0-10">
          <mxGeometry relative="1" as="geometry" />
        </mxCell>
        <mxCell id="K3xu1hSzyyo2JFkCkbd0-6" value="f1" style="ellipse;whiteSpace=wrap;html=1;aspect=fixed;strokeWidth=2;fillColor=#d5e8d4;strokeColor=#82b366;fontSize=24;" vertex="1" parent="1">
          <mxGeometry x="480" y="220" width="80" height="80" as="geometry" />
        </mxCell>
        <mxCell id="K3xu1hSzyyo2JFkCkbd0-8" value="m4" style="ellipse;whiteSpace=wrap;html=1;aspect=fixed;strokeWidth=2;fillColor=#dae8fc;strokeColor=#6c8ebf;fontSize=24;" vertex="1" parent="1">
          <mxGeometry x="640" y="360" width="80" height="80" as="geometry" />
        </mxCell>
        <mxCell id="K3xu1hSzyyo2JFkCkbd0-14" style="edgeStyle=orthogonalEdgeStyle;rounded=0;orthogonalLoop=1;jettySize=auto;html=1;entryX=0;entryY=0.5;entryDx=0;entryDy=0;" edge="1" parent="1" source="K3xu1hSzyyo2JFkCkbd0-10" target="K3xu1hSzyyo2JFkCkbd0-13">
          <mxGeometry relative="1" as="geometry" />
        </mxCell>
        <mxCell id="K3xu1hSzyyo2JFkCkbd0-10" value="f2" style="ellipse;whiteSpace=wrap;html=1;aspect=fixed;strokeWidth=2;fillColor=#d5e8d4;strokeColor=#82b366;fontSize=24;" vertex="1" parent="1">
          <mxGeometry x="640" y="220" width="80" height="80" as="geometry" />
        </mxCell>
        <mxCell id="K3xu1hSzyyo2JFkCkbd0-13" value="f3" style="ellipse;whiteSpace=wrap;html=1;aspect=fixed;strokeWidth=2;fillColor=#d5e8d4;strokeColor=#82b366;fontSize=24;" vertex="1" parent="1">
          <mxGeometry x="800" y="220" width="80" height="80" as="geometry" />
        </mxCell>
      </root>
    </mxGraphModel>
  </diagram>
</mxfile>
